<svg id="visual" viewBox="0 0 1920 1080" width="1920" height="1080" xmlns="http://www.w3.org/2000/svg" xmlns:xlink="http://www.w3.org/1999/xlink" version="1.1"><path d="M0 66L29.2 62.3C58.3 58.7 116.7 51.3 174.8 45.8C233 40.3 291 36.7 349.2 47.5C407.3 58.3 465.7 83.7 523.8 94.5C582 105.3 640 101.7 698.2 90.8C756.3 80 814.7 62 872.8 56.7C931 51.3 989 58.7 1047.2 58.7C1105.3 58.7 1163.7 51.3 1221.8 51.3C1280 51.3 1338 58.7 1396.2 60.5C1454.3 62.3 1512.7 58.7 1570.8 62.2C1629 65.7 1687 76.3 1745.2 81.7C1803.3 87 1861.7 87 1890.8 87L1920 87L1920 0L1890.8 0C1861.7 0 1803.3 0 1745.2 0C1687 0 1629 0 1570.8 0C1512.7 0 1454.3 0 1396.2 0C1338 0 1280 0 1221.8 0C1163.7 0 1105.3 0 1047.2 0C989 0 931 0 872.8 0C814.7 0 756.3 0 698.2 0C640 0 582 0 523.8 0C465.7 0 407.3 0 349.2 0C291 0 233 0 174.8 0C116.7 0 58.3 0 29.2 0L0 0Z" fill="#5a6f8e"></path><path d="M0 109L29.2 103.7C58.3 98.3 116.7 87.7 174.8 84C233 80.3 291 83.7 349.2 98C407.3 112.3 465.7 137.7 523.8 148.5C582 159.3 640 155.7 698.2 141.3C756.3 127 814.7 102 872.8 91.2C931 80.3 989 83.7 1047.2 83.7C1105.3 83.7 1163.7 80.3 1221.8 85.8C1280 91.3 1338 105.7 1396.2 111C1454.3 116.3 1512.7 112.7 1570.8 116.2C1629 119.7 1687 130.3 1745.2 130.3C1803.3 130.3 1861.7 119.7 1890.8 114.3L1920 109L1920 85L1890.8 85C1861.7 85 1803.3 85 1745.2 79.7C1687 74.3 1629 63.7 1570.8 60.2C1512.7 56.7 1454.3 60.3 1396.2 58.5C1338 56.7 1280 49.3 1221.8 49.3C1163.7 49.3 1105.3 56.7 1047.2 56.7C989 56.7 931 49.3 872.8 54.7C814.7 60 756.3 78 698.2 88.8C640 99.7 582 103.3 523.8 92.5C465.7 81.7 407.3 56.3 349.2 45.5C291 34.7 233 38.3 174.8 43.8C116.7 49.3 58.3 56.7 29.2 60.3L0 64Z" fill="#607697"></path><path d="M0 174L29.2 181.2C58.3 188.3 116.7 202.7 174.8 215.2C233 227.7 291 238.3 349.2 252.7C407.3 267 465.7 285 523.8 283.3C582 281.7 640 260.3 698.2 240.7C756.3 221 814.7 203 872.8 204.7C931 206.3 989 227.7 1047.2 240.2C1105.3 252.7 1163.7 256.3 1221.8 263.7C1280 271 1338 282 1396.2 274.8C1454.3 267.7 1512.7 242.3 1570.8 240.5C1629 238.7 1687 260.3 1745.2 256.7C1803.3 253 1861.7 224 1890.8 209.5L1920 195L1920 107L1890.8 112.3C1861.7 117.7 1803.3 128.3 1745.2 128.3C1687 128.3 1629 117.7 1570.8 114.2C1512.7 110.7 1454.3 114.3 1396.2 109C1338 103.7 1280 89.3 1221.8 83.8C1163.7 78.3 1105.3 81.7 1047.2 81.7C989 81.7 931 78.3 872.8 89.2C814.7 100 756.3 125 698.2 139.3C640 153.7 582 157.3 523.8 146.5C465.7 135.7 407.3 110.3 349.2 96C291 81.7 233 78.3 174.8 82C116.7 85.7 58.3 96.3 29.2 101.7L0 107Z" fill="#677ea0"></path><path d="M0 271L29.2 272.8C58.3 274.7 116.7 278.3 174.8 285.5C233 292.7 291 303.3 349.2 315.8C407.3 328.3 465.7 342.7 523.8 351.7C582 360.7 640 364.3 698.2 357.2C756.3 350 814.7 332 872.8 321.2C931 310.3 989 306.7 1047.2 306.7C1105.3 306.7 1163.7 310.3 1221.8 330.2C1280 350 1338 386 1396.2 387.8C1454.3 389.7 1512.7 357.3 1570.8 350.2C1629 343 1687 361 1745.2 359.2C1803.3 357.3 1861.7 335.7 1890.8 324.8L1920 314L1920 193L1890.8 207.5C1861.7 222 1803.3 251 1745.2 254.7C1687 258.3 1629 236.7 1570.8 238.5C1512.7 240.3 1454.3 265.7 1396.2 272.8C1338 280 1280 269 1221.8 261.7C1163.7 254.3 1105.3 250.7 1047.2 238.2C989 225.7 931 204.3 872.8 202.7C814.7 201 756.3 219 698.2 238.7C640 258.3 582 279.7 523.8 281.3C465.7 283 407.3 265 349.2 250.7C291 236.3 233 225.7 174.8 213.2C116.7 200.7 58.3 186.3 29.2 179.2L0 172Z" fill="#6d85a8"></path><path d="M0 314L29.2 319.5C58.3 325 116.7 336 174.8 339.7C233 343.3 291 339.7 349.2 352.2C407.3 364.7 465.7 393.3 523.8 409.5C582 425.7 640 429.3 698.2 415C756.3 400.7 814.7 368.3 872.8 357.5C931 346.7 989 357.3 1047.2 360.8C1105.3 364.3 1163.7 360.7 1221.8 375.2C1280 389.7 1338 422.3 1396.2 424.2C1454.3 426 1512.7 397 1570.8 388C1629 379 1687 390 1745.2 390C1803.3 390 1861.7 379 1890.8 373.5L1920 368L1920 312L1890.8 322.8C1861.7 333.7 1803.3 355.3 1745.2 357.2C1687 359 1629 341 1570.8 348.2C1512.7 355.3 1454.3 387.7 1396.2 385.8C1338 384 1280 348 1221.8 328.2C1163.7 308.3 1105.3 304.7 1047.2 304.7C989 304.7 931 308.3 872.8 319.2C814.7 330 756.3 348 698.2 355.2C640 362.3 582 358.7 523.8 349.7C465.7 340.7 407.3 326.3 349.2 313.8C291 301.3 233 290.7 174.8 283.5C116.7 276.3 58.3 272.7 29.2 270.8L0 269Z" fill="#748db1"></path><path d="M0 401L29.2 406.3C58.3 411.7 116.7 422.3 174.8 420.5C233 418.7 291 404.3 349.2 411.5C407.3 418.7 465.7 447.3 523.8 465.3C582 483.3 640 490.7 698.2 474.5C756.3 458.3 814.7 418.7 872.8 409.7C931 400.7 989 422.3 1047.2 429.5C1105.3 436.7 1163.7 429.3 1221.8 443.7C1280 458 1338 494 1396.2 499.5C1454.3 505 1512.7 480 1570.8 465.7C1629 451.3 1687 447.7 1745.2 444C1803.3 440.3 1861.7 436.7 1890.8 434.8L1920 433L1920 366L1890.8 371.5C1861.7 377 1803.3 388 1745.2 388C1687 388 1629 377 1570.8 386C1512.7 395 1454.3 424 1396.2 422.2C1338 420.3 1280 387.7 1221.8 373.2C1163.7 358.7 1105.3 362.3 1047.2 358.8C989 355.3 931 344.7 872.8 355.5C814.7 366.3 756.3 398.7 698.2 413C640 427.3 582 423.7 523.8 407.5C465.7 391.3 407.3 362.7 349.2 350.2C291 337.7 233 341.3 174.8 337.7C116.7 334 58.3 323 29.2 317.5L0 312Z" fill="#7b94ba"></path><path d="M0 509L29.2 512.5C58.3 516 116.7 523 174.8 514C233 505 291 480 349.2 478.2C407.3 476.3 465.7 497.7 523.8 512C582 526.3 640 533.7 698.2 519.3C756.3 505 814.7 469 872.8 465.3C931 461.7 989 490.3 1047.2 506.5C1105.3 522.7 1163.7 526.3 1221.8 535.3C1280 544.3 1338 558.7 1396.2 560.5C1454.3 562.3 1512.7 551.7 1570.8 544.5C1629 537.3 1687 533.7 1745.2 531.8C1803.3 530 1861.7 530 1890.8 530L1920 530L1920 431L1890.8 432.8C1861.7 434.7 1803.3 438.3 1745.2 442C1687 445.7 1629 449.3 1570.8 463.7C1512.7 478 1454.3 503 1396.2 497.5C1338 492 1280 456 1221.8 441.7C1163.7 427.3 1105.3 434.7 1047.2 427.5C989 420.3 931 398.7 872.8 407.7C814.7 416.7 756.3 456.3 698.2 472.5C640 488.7 582 481.3 523.8 463.3C465.7 445.3 407.3 416.7 349.2 409.5C291 402.3 233 416.7 174.8 418.5C116.7 420.3 58.3 409.7 29.2 404.3L0 399Z" fill="#829bc1"></path><path d="M0 530L29.2 540.8C58.3 551.7 116.7 573.3 174.8 566.2C233 559 291 523 349.2 517.7C407.3 512.3 465.7 537.7 523.8 550.3C582 563 640 563 698.2 548.5C756.3 534 814.7 505 872.8 508.5C931 512 989 548 1047.2 567.8C1105.3 587.7 1163.7 591.3 1221.8 600.3C1280 609.3 1338 623.7 1396.2 621.8C1454.3 620 1512.7 602 1570.8 594.8C1629 587.7 1687 591.3 1745.2 593.2C1803.3 595 1861.7 595 1890.8 595L1920 595L1920 528L1890.8 528C1861.7 528 1803.3 528 1745.2 529.8C1687 531.7 1629 535.3 1570.8 542.5C1512.7 549.7 1454.3 560.3 1396.2 558.5C1338 556.7 1280 542.3 1221.8 533.3C1163.7 524.3 1105.3 520.7 1047.2 504.5C989 488.3 931 459.7 872.8 463.3C814.7 467 756.3 503 698.2 517.3C640 531.7 582 524.3 523.8 510C465.7 495.7 407.3 474.3 349.2 476.2C291 478 233 503 174.8 512C116.7 521 58.3 514 29.2 510.5L0 507Z" fill="#89a0c4"></path><path d="M0 573L29.2 582C58.3 591 116.7 609 174.8 600C233 591 291 555 349.2 549.7C407.3 544.3 465.7 569.7 523.8 580.5C582 591.3 640 587.7 698.2 576.8C756.3 566 814.7 548 872.8 557C931 566 989 602 1047.2 623.7C1105.3 645.3 1163.7 652.7 1221.8 659.8C1280 667 1338 674 1396.2 670.3C1454.3 666.7 1512.7 652.3 1570.8 645.2C1629 638 1687 638 1745.2 641.7C1803.3 645.3 1861.7 652.7 1890.8 656.3L1920 660L1920 593L1890.8 593C1861.7 593 1803.3 593 1745.2 591.2C1687 589.3 1629 585.7 1570.8 592.8C1512.7 600 1454.3 618 1396.2 619.8C1338 621.7 1280 607.3 1221.8 598.3C1163.7 589.3 1105.3 585.7 1047.2 565.8C989 546 931 510 872.8 506.5C814.7 503 756.3 532 698.2 546.5C640 561 582 561 523.8 548.3C465.7 535.7 407.3 510.3 349.2 515.7C291 521 233 557 174.8 564.2C116.7 571.3 58.3 549.7 29.2 538.8L0 528Z" fill="#91a5c8"></path><path d="M0 649L29.2 656.2C58.3 663.3 116.7 677.7 174.8 663.3C233 649 291 606 349.2 593.5C407.3 581 465.7 599 523.8 608C582 617 640 617 698.2 617C756.3 617 814.7 617 872.8 633.2C931 649.3 989 681.7 1047.2 701.3C1105.3 721 1163.7 728 1221.8 735.2C1280 742.3 1338 749.7 1396.2 746.2C1454.3 742.7 1512.7 728.3 1570.8 717.5C1629 706.7 1687 699.3 1745.2 697.5C1803.3 695.7 1861.7 699.3 1890.8 701.2L1920 703L1920 658L1890.8 654.3C1861.7 650.7 1803.3 643.3 1745.2 639.7C1687 636 1629 636 1570.8 643.2C1512.7 650.3 1454.3 664.7 1396.2 668.3C1338 672 1280 665 1221.8 657.8C1163.7 650.7 1105.3 643.3 1047.2 621.7C989 600 931 564 872.8 555C814.7 546 756.3 564 698.2 574.8C640 585.7 582 589.3 523.8 578.5C465.7 567.7 407.3 542.3 349.2 547.7C291 553 233 589 174.8 598C116.7 607 58.3 589 29.2 580L0 571Z" fill="#98abcc"></path><path d="M0 800L29.2 827C58.3 854 116.7 908 174.8 895.5C233 883 291 804 349.2 782.5C407.3 761 465.7 797 523.8 804.2C582 811.3 640 789.7 698.2 809.3C756.3 829 814.7 890 872.8 902.5C931 915 989 879 1047.2 875.5C1105.3 872 1163.7 901 1221.8 919C1280 937 1338 944 1396.2 951.2C1454.3 958.3 1512.7 965.7 1570.8 944.2C1629 922.7 1687 872.3 1745.2 863.3C1803.3 854.3 1861.7 886.7 1890.8 902.8L1920 919L1920 701L1890.8 699.2C1861.7 697.3 1803.3 693.7 1745.2 695.5C1687 697.3 1629 704.7 1570.8 715.5C1512.7 726.3 1454.3 740.7 1396.2 744.2C1338 747.7 1280 740.3 1221.8 733.2C1163.7 726 1105.3 719 1047.2 699.3C989 679.7 931 647.3 872.8 631.2C814.7 615 756.3 615 698.2 615C640 615 582 615 523.8 606C465.7 597 407.3 579 349.2 591.5C291 604 233 647 174.8 661.3C116.7 675.7 58.3 661.3 29.2 654.2L0 647Z" fill="#a0b0cf"></path><path d="M0 1081L29.2 1081C58.3 1081 116.7 1081 174.8 1081C233 1081 291 1081 349.2 1081C407.3 1081 465.7 1081 523.8 1081C582 1081 640 1081 698.2 1081C756.3 1081 814.7 1081 872.8 1081C931 1081 989 1081 1047.2 1081C1105.3 1081 1163.7 1081 1221.8 1081C1280 1081 1338 1081 1396.2 1081C1454.3 1081 1512.7 1081 1570.8 1081C1629 1081 1687 1081 1745.2 1081C1803.3 1081 1861.7 1081 1890.8 1081L1920 1081L1920 917L1890.8 900.8C1861.7 884.7 1803.3 852.3 1745.2 861.3C1687 870.3 1629 920.7 1570.8 942.2C1512.7 963.7 1454.3 956.3 1396.2 949.2C1338 942 1280 935 1221.8 917C1163.7 899 1105.3 870 1047.2 873.5C989 877 931 913 872.8 900.5C814.7 888 756.3 827 698.2 807.3C640 787.7 582 809.3 523.8 802.2C465.7 795 407.3 759 349.2 780.5C291 802 233 881 174.8 893.5C116.7 906 58.3 852 29.2 825L0 798Z" fill="#a7b6d3"></path></svg>